<svg viewBox="-36 -37 76 76" fill="none" xmlns="http://www.w3.org/2000/svg" stroke-width="5">
  <path stroke="#ff0" d="M35.3 0q0-3.1-2.6-5.3-3-2.5-7-2.8-5-.4-9.5 1.5Q11-4.5 7-.6 3 3.7.7 9q-2 5-2 10.6 0 4.8 2.3 8.9 1.9 3.5 5.2 4.9 3 1.3 5.8-.2t3.6-5q1-3.9-.5-8-1.7-4.7-5.2-8.3-4-4-9.3-6.2-5.3-2.2-11.1-2.2-5.4 0-10.3 2.1-4.2 2-7 5.5-2.2 3-2 6.5.3 3.1 3 4.8 2.7 1.8 6.3 1 4.2-.8 7.4-3.9Q-9.2 16-7.2 11-5 5.7-5 0t-2.2-11q-2-4.9-5.9-8.4-3.2-3-7.4-4-3.6-.7-6.4 1-2.6 1.8-2.8 5-.3 3.4 2 6.4 2.7 3.6 6.9 5.5 5 2.1 10.3 2.1 5.8 0 11.1-2.2 5.2-2.1 9.3-6.2 3.5-3.6 5.2-8.4 1.4-4 .5-8-.8-3.4-3.6-4.9-2.8-1.5-5.8-.2-3.3 1.4-5.2 5-2.2 4-2.3 8.8 0 5.5 2 10.6Q3-3.6 7.1.5q3.9 4 9 6 4.7 2 9.5 1.6 4.1-.3 7-2.8 2.7-2.9 2.7-5.3Z"/>
</svg>
