<svg xmlns="http://www.w3.org/2000/svg" xml:space="preserve" viewBox="0 0 128.4 134.6">
  <path fill="none" stroke="red" stroke-width="2" d="M44.2 26C75.7 11.5 78.6 4 78.6 4s15.9 8.7 14.6 37.7c18.5 21.3 19 19.2 31.3 25.8C123.2 82 104.7 88 93.2 93.3 85 105.3 77.8 123 78.5 131c-12.6 1.7-23.9-8.7-34.2-22.2-15.6-5.2-25.8-3.9-40.3-1.8-5.8-8.8 4-32.6 10-39.5C15.3 55.6 9 40 4 28.1 9.6 18.3 44.2 26 44.2 26z"/>
  <g fill="none" stroke="#00f9ff" stroke-width="2" transform="translate(-42.5 -156.5)">
    <circle cx="86.9" cy="182.1" r="2.7"/>
    <circle cx="136" cy="249.5" r="2.7"/>
    <circle cx="121.2" cy="160.2" r="2.7"/>
    <circle cx="135.7" cy="198.4" r="2.7"/>
    <circle cx="46.2" cy="184.6" r="2.7"/>
    <circle cx="56.6" cy="223.8" r="2.7"/>
    <circle cx="167.2" cy="223.8" r="2.7"/>
    <circle cx="46.4" cy="263.5" r="2.7"/>
    <circle cx="86.9" cy="265.5" r="2.7"/>
    <circle cx="121.2" cy="287.4" r="2.7"/>
  </g>
</svg>
