<svg xmlns="http://www.w3.org/2000/svg" viewBox="-1.5 -1.5 3 3"><line x1="1" y1="0" x2="1" y2="0.2025414684340944" stroke="#ff0" stroke-width="0.02"></line><line x1="-0.04414528491070676" y1="0.13586521661359338" x2="0.5016453777491822" y2="0.3132033529318011" stroke="#ff0" stroke-width="0.02"></line><circle cx="1" cy="0.2025414684340944" r="0.05" fill="#ff0"></circle><circle cx="0.5016453777491822" cy="0.3132033529318011" r="0.05" fill="#ff0"></circle><circle cx="-0.04414528491070676" cy="0.13586521661359338" r="0.05" fill="#f00"></circle><line x1="-0.04414528491070676" y1="0.13586521661359338" x2="-0.5899359475705958" y2="-0.041472919704614315" stroke="#ff0" stroke-width="0.02"></line><line x1="-0.8090169943749476" y1="-0.587785252292473" x2="-0.9280678824981697" y2="-0.42392576226363365" stroke="#ff0" stroke-width="0.02"></line><circle cx="-0.5899359475705958" cy="-0.041472919704614315" r="0.05" fill="#ff0"></circle><circle cx="-0.9280678824981697" cy="-0.42392576226363365" r="0.05" fill="#ff0"></circle><circle cx="-0.8090169943749476" cy="-0.587785252292473" r="0.05" fill="#f00"></circle><line x1="-0.8090169943749476" y1="-0.587785252292473" x2="-0.6899661062517255" y2="-0.7516447423213124" stroke="#ff0" stroke-width="0.02"></line><line x1="0.11557385633927819" y1="-0.08396932175606762" x2="-0.2217433239268614" y2="-0.5482465901386977" stroke="#ff0" stroke-width="0.02"></line><circle cx="-0.6899661062517255" cy="-0.7516447423213124" r="0.05" fill="#ff0"></circle><circle cx="-0.2217433239268614" cy="-0.5482465901386977" r="0.05" fill="#ff0"></circle><circle cx="0.11557385633927819" cy="-0.08396932175606762" r="0.05" fill="#f00"></circle><line x1="0.11557385633927819" y1="-0.08396932175606762" x2="0.4528910366054178" y2="0.38030794662656237" stroke="#ff0" stroke-width="0.02"></line><line x1="0.30901699437494773" y1="0.9510565162951534" x2="0.5016453777491824" y2="0.8884677604833613" stroke="#ff0" stroke-width="0.02"></line><circle cx="0.4528910366054178" cy="0.38030794662656237" r="0.05" fill="#ff0"></circle><circle cx="0.5016453777491824" cy="0.8884677604833613" r="0.05" fill="#ff0"></circle><circle cx="0.30901699437494773" cy="0.9510565162951534" r="0.05" fill="#f00"></circle><line x1="0.30901699437494773" y1="0.9510565162951534" x2="0.11638861100071314" y2="1.0136452721069458" stroke="#ff0" stroke-width="0.02"></line><line x1="-0.14285714285714285" y1="5.2484862820600853e-17" x2="-0.14285714285714268" y2="0.5738782641288447" stroke="#ff0" stroke-width="0.02"></line><circle cx="0.11638861100071314" cy="1.0136452721069458" r="0.05" fill="#ff0"></circle><circle cx="-0.14285714285714268" cy="0.5738782641288447" r="0.05" fill="#ff0"></circle><circle cx="-0.14285714285714285" cy="5.2484862820600853e-17" r="0.05" fill="#f00"></circle><line x1="-0.14285714285714285" y1="5.2484862820600853e-17" x2="-0.1428571428571431" y2="-0.5738782641288446" stroke="#ff0" stroke-width="0.02"></line><line x1="0.309016994374947" y1="-0.9510565162951539" x2="0.11638861100071234" y2="-1.0136452721069458" stroke="#ff0" stroke-width="0.02"></line><circle cx="-0.1428571428571431" cy="-0.5738782641288446" r="0.05" fill="#ff0"></circle><circle cx="0.11638861100071234" cy="-1.0136452721069458" r="0.05" fill="#ff0"></circle><circle cx="0.309016994374947" cy="-0.9510565162951539" r="0.05" fill="#f00"></circle><line x1="0.309016994374947" y1="-0.9510565162951539" x2="0.5016453777491817" y2="-0.8884677604833617" stroke="#ff0" stroke-width="0.02"></line><line x1="0.11557385633927825" y1="0.08396932175606753" x2="0.4528910366054176" y2="-0.3803079466265627" stroke="#ff0" stroke-width="0.02"></line><circle cx="0.5016453777491817" cy="-0.8884677604833617" r="0.05" fill="#ff0"></circle><circle cx="0.4528910366054176" cy="-0.3803079466265627" r="0.05" fill="#ff0"></circle><circle cx="0.11557385633927825" cy="0.08396932175606753" r="0.05" fill="#f00"></circle><line x1="0.11557385633927825" y1="0.08396932175606753" x2="-0.22174332392686097" y2="0.5482465901386979" stroke="#ff0" stroke-width="0.02"></line><line x1="-0.8090169943749471" y1="0.5877852522924736" x2="-0.6899661062517248" y2="0.7516447423213128" stroke="#ff0" stroke-width="0.02"></line><circle cx="-0.22174332392686097" cy="0.5482465901386979" r="0.05" fill="#ff0"></circle><circle cx="-0.6899661062517248" cy="0.7516447423213128" r="0.05" fill="#ff0"></circle><circle cx="-0.8090169943749471" cy="0.5877852522924736" r="0.05" fill="#f00"></circle><line x1="-0.8090169943749471" y1="0.5877852522924736" x2="-0.928067882498169" y2="0.4239257622636342" stroke="#ff0" stroke-width="0.02"></line><line x1="-0.044145284910706864" y1="-0.13586521661359333" x2="-0.5899359475705959" y2="0.04147291970461478" stroke="#ff0" stroke-width="0.02"></line><circle cx="-0.928067882498169" cy="0.4239257622636342" r="0.05" fill="#ff0"></circle><circle cx="-0.5899359475705959" cy="0.04147291970461478" r="0.05" fill="#ff0"></circle><circle cx="-0.044145284910706864" cy="-0.13586521661359333" r="0.05" fill="#f00"></circle><line x1="-0.044145284910706864" y1="-0.13586521661359333" x2="0.5016453777491817" y2="-0.31320335293180246" stroke="#ff0" stroke-width="0.02"></line><line x1="1" y1="-7.34788079488412e-16" x2="0.9999999999999994" y2="-0.2025414684340951" stroke="#ff0" stroke-width="0.02"></line><circle cx="0.5016453777491817" cy="-0.31320335293180246" r="0.05" fill="#ff0"></circle><circle cx="0.9999999999999994" cy="-0.2025414684340951" r="0.05" fill="#ff0"></circle><circle cx="1" cy="-7.34788079488412e-16" r="0.05" fill="#f00"></circle><path d="M 1 0 C 1 0.2025414684340944 0.5016453777491822 0.3132033529318011 -0.04414528491070676 0.13586521661359338 C -0.5899359475705958 -0.041472919704614315 -0.9280678824981697 -0.42392576226363365 -0.8090169943749476 -0.587785252292473 C -0.6899661062517255 -0.7516447423213124 -0.2217433239268614 -0.5482465901386977 0.11557385633927819 -0.08396932175606762 C 0.4528910366054178 0.38030794662656237 0.5016453777491824 0.8884677604833613 0.30901699437494773 0.9510565162951534 C 0.11638861100071314 1.0136452721069458 -0.14285714285714268 0.5738782641288447 -0.14285714285714285 5.2484862820600853e-17 C -0.1428571428571431 -0.5738782641288446 0.11638861100071234 -1.0136452721069458 0.309016994374947 -0.9510565162951539 C 0.5016453777491817 -0.8884677604833617 0.4528910366054176 -0.3803079466265627 0.11557385633927825 0.08396932175606753 C -0.22174332392686097 0.5482465901386979 -0.6899661062517248 0.7516447423213128 -0.8090169943749471 0.5877852522924736 C -0.928067882498169 0.4239257622636342 -0.5899359475705959 0.04147291970461478 -0.044145284910706864 -0.13586521661359333 C 0.5016453777491817 -0.31320335293180246 0.9999999999999994 -0.2025414684340951 1 -7.34788079488412e-16 Z " fill="none" stroke="#f00" stroke-width="0.02"></path></svg>