<svg xmlns="http://www.w3.org/2000/svg" viewBox="0 0 509 547">
  <path fill="red" d="M414.3 226.3q-.5 1-1.8 1.2a283.7 283.7 0 0 1-58-76c-13.2-26.6-23.8-54.3-35-81.8a.4.4 61.2 0 0-.6-.2q-25.8 18.3-52.7 35-17.2 10.6-27.5 15.2-30 13.4-65.9 20.7-9.2 1.9-19.8 2.6-36.8 2.5-73.6 2.2a1 1-4.7 0 0-1 1.2q1.6 9.5 4.1 18.4L94.1 205a.6.5-11.3 0 0 .7.3l1.5-.1a.6.5 80 0 1 .6.5q5.7 26.6 7.7 53.8c1.9 26.5-1.6 52.7-7 78.8-.4 1.5.2 4.6-2.8 3.4a.5.4 19.6 0 0-.6.3q-6 20.4-14 49.5-1.4 5.3-1.6 9.8a.5.5.6 0 0 .5.5q36.3-.3 72.6 2 10.7.7 19.8 2.6a275.4 275.4 0 0 1 88.6 32.5q30 18.2 58.8 38.7a.5.5 28.3 0 0 .7-.3q10.5-26.6 21.6-53.1c8.8-21 18.2-40.8 31.1-58.6q17.9-24.6 39.8-45.8a.8.7 32.6 0 1 .9 0q1.6.6 1-.8a.7.6 60.8 0 1 .2-.8l57.8-44a.8.8-44.6 0 0 0-1.3q-28.6-22.4-58.3-44.4l1-1.8q.7 0 1.6.7 23.8 17.9 47.3 36 5.6 4.3 11 9a1.4 1.3-45.7 0 1 0 2q-2 2-4.6 4-24.7 19.4-49.9 38.3-6.8 5-11.8 10.2-18.2 18.4-33.5 39.2c-13 17.8-22.8 38-31.4 58.8q-16.3 39.7-22 54a.6.3-64.1 0 0 0 .7c.9.5 3.8-4.3 4.2-5.1a1.1.8-79.2 0 1 .6-.6q1-.2 1.6.6a1 .8-52.5 0 1 0 .9c-8.4 18.9-16.5 38.6-26.3 56.7a1.3 1-81 0 1-.8.6q-2.6.8-1.3-3 8.4-23.4 17.9-46.6 1-2.7-1.2-4.6-2-1.6-6-4.4-26.9-18.7-55-35.4c-27.5-16.3-60-26-91.3-31.5q-5.1-.9-18-1.5-25.3-1.2-50.6-1.7c-2.5 0-14.6.7-16-.2a.4.4-58.1 0 0-.6.2q-.4.8-1.3.3a1.1 1-81.1 0 1-.5-.8q-.6-5.8 1.1-12.3 9.8-36 17-59.5c1-3.4 2.7-6 3.3-10 3.3-20.4 5.4-39 4.4-59q-1.2-22.1-5-40.9c0-.7-1.4-2.3-1.7-3.5q-7.7-24.4-14.4-49.2c-1.6-6.2-4-14-5-20.8 0 0-.2-7.8 1.8-5.5a1.1.7 60.1 0 0 .8.4c.6 0 .6-.3 1.3-.3q36.3.3 72.5-2.2 10.8-.8 19.9-2.6c26.5-5.5 55-14 78.6-27.7q34-19.7 64.6-41.8 2.5-1.8 1.3-4.6-9.8-24-18.3-47.3a1.8 1.5 46.1 0 1 0-1c1-4 3 0 3.6 1.2q13 26.8 24.9 54.1c.5 1.3.3 2.7-1.5 1.9a1.6 1.1 84.1 0 1-.6-.8q-1.3-2.8-3.7-4.8-.8-.7-.4.3 13 33.5 27.4 66.5c9 20.6 19.7 39.2 33.5 56.5q15 18.8 32 35.7Zm-105-188.8q4.8 12.6 9.9 25 .6 1.5 1.8 1.1a.5.5 68.6 0 0 .3-.7l-11.6-25.4q-4-8.8-.4 0Zm9.9 447q-5.5 13.7-10.8 27.5c-.3.7.1.4.2.2l12.7-28a.6.5-63.5 0 0-.2-.8q-1.3-.6-2 1Z"/>
</svg>
