<svg xmlns="http://www.w3.org/2000/svg" xml:space="preserve" viewBox="0 0 112.3 117.5">
  <g fill="none" stroke-width="2" transform="translate(-48.2 -164.8)">
    <circle cx="90.7" cy="183.7" r="2.7" stroke="#00f9ff"/>
    <circle cx="130.8" cy="247.2" r="2.7" stroke="#00f9ff"/>
    <circle cx="116.2" cy="168.5" r="2.7" stroke="#00f9ff"/>
    <circle cx="131.5" cy="201.2" r="2.7" stroke="#00f9ff"/>
    <circle cx="52.1" cy="189" r="2.7" stroke="#00f9ff"/>
    <circle cx="58.8" cy="221.5" r="2.7" stroke="#00f9ff"/>
    <circle cx="156.8" cy="223.1" r="2.7" stroke="#00f9ff"/>
    <circle cx="51.9" cy="257.7" r="2.7" stroke="#00f9ff"/>
    <circle cx="86.4" cy="262.1" r="2.7" stroke="#00f9ff"/>
    <circle cx="115.8" cy="278.6" r="2.7" stroke="#00f9ff"/>
    <path stroke="red" d="M90.5 184.1c24.8-10 22-16.5 25.2-15.4 3.1 1 3 15.4 16 32.6 13.2 17.1 25.1 19 25.1 22 0 3.1-13.6 6.6-25.9 23.5-12.2 17-10.6 29.5-14.1 31.5-2.8 1.6-9.7-8.5-30.5-16.9C65.6 253 54 260.7 52 258c-1.8-2.7 6.7-14.5 6.6-36-.1-21.6-8.3-30-6.5-33.1 1.8-3.1 13.5 5.3 38.4-4.8z"/>
  </g>
</svg>
