<svg xmlns="http://www.w3.org/2000/svg" viewBox="-1.5 -1.5 3 3"><line x1="1" y1="0" x2="1" y2="0.15234927921741265" stroke="#ff0" stroke-width="0.02"></line><line x1="-0.01626405233552356" y1="0.05005560612079761" x2="0.5189659784696318" y2="0.22396238514473776" stroke="#ff0" stroke-width="0.02"></line><circle cx="1" cy="0.15234927921741265" r="0.05" fill="#ff0"></circle><circle cx="0.5189659784696318" cy="0.22396238514473776" r="0.05" fill="#ff0"></circle><circle cx="-0.01626405233552356" cy="0.05005560612079761" r="0.05" fill="#f00"></circle><line x1="-0.01626405233552356" y1="0.05005560612079761" x2="-0.551494083140679" y2="-0.12385117290314249" stroke="#ff0" stroke-width="0.02"></line><line x1="-0.8090169943749476" y1="-0.587785252292473" x2="-0.8985656538963309" y2="-0.4645320963248122" stroke="#ff0" stroke-width="0.02"></line><circle cx="-0.551494083140679" cy="-0.12385117290314249" r="0.05" fill="#ff0"></circle><circle cx="-0.8985656538963309" cy="-0.4645320963248122" r="0.05" fill="#ff0"></circle><circle cx="-0.8090169943749476" cy="-0.587785252292473" r="0.05" fill="#f00"></circle><line x1="-0.8090169943749476" y1="-0.587785252292473" x2="-0.7194683348535642" y2="-0.7110384082601339" stroke="#ff0" stroke-width="0.02"></line><line x1="0.0425798418092078" y1="-0.03093606591013021" x2="-0.2882105090280316" y2="-0.48622992426882283" stroke="#ff0" stroke-width="0.02"></line><circle cx="-0.7194683348535642" cy="-0.7110384082601339" r="0.05" fill="#ff0"></circle><circle cx="-0.2882105090280316" cy="-0.48622992426882283" r="0.05" fill="#ff0"></circle><circle cx="0.0425798418092078" cy="-0.03093606591013021" r="0.05" fill="#f00"></circle><line x1="0.0425798418092078" y1="-0.03093606591013021" x2="0.3733701926464472" y2="0.4243577924485623" stroke="#ff0" stroke-width="0.02"></line><line x1="0.30901699437494773" y1="0.9510565162951535" x2="0.45390976912753783" y2="0.903977999936199" stroke="#ff0" stroke-width="0.02"></line><circle cx="0.3733701926464472" cy="0.4243577924485623" r="0.05" fill="#ff0"></circle><circle cx="0.45390976912753783" cy="0.903977999936199" r="0.05" fill="#ff0"></circle><circle cx="0.30901699437494773" cy="0.9510565162951535" r="0.05" fill="#f00"></circle><line x1="0.30901699437494773" y1="0.9510565162951535" x2="0.16412421962235765" y2="0.9981350326541081" stroke="#ff0" stroke-width="0.02"></line><line x1="-0.052631578947368474" y1="1.9336528407589805e-17" x2="-0.0526315789473683" y2="0.562774158669505" stroke="#ff0" stroke-width="0.02"></line><circle cx="0.16412421962235765" cy="0.9981350326541081" r="0.05" fill="#ff0"></circle><circle cx="-0.0526315789473683" cy="0.562774158669505" r="0.05" fill="#ff0"></circle><circle cx="-0.052631578947368474" cy="1.9336528407589805e-17" r="0.05" fill="#f00"></circle><line x1="-0.052631578947368474" y1="1.9336528407589805e-17" x2="-0.052631578947368717" y2="-0.562774158669505" stroke="#ff0" stroke-width="0.02"></line><line x1="0.309016994374947" y1="-0.9510565162951538" x2="0.16412421962235688" y2="-0.9981350326541083" stroke="#ff0" stroke-width="0.02"></line><circle cx="-0.052631578947368717" cy="-0.562774158669505" r="0.05" fill="#ff0"></circle><circle cx="0.16412421962235688" cy="-0.9981350326541083" r="0.05" fill="#ff0"></circle><circle cx="0.309016994374947" cy="-0.9510565162951538" r="0.05" fill="#f00"></circle><line x1="0.309016994374947" y1="-0.9510565162951538" x2="0.4539097691275371" y2="-0.9039779999361993" stroke="#ff0" stroke-width="0.02"></line><line x1="0.04257984180920782" y1="0.030936065910130175" x2="0.37337019264644694" y2="-0.4243577924485627" stroke="#ff0" stroke-width="0.02"></line><circle cx="0.4539097691275371" cy="-0.9039779999361993" r="0.05" fill="#ff0"></circle><circle cx="0.37337019264644694" cy="-0.4243577924485627" r="0.05" fill="#ff0"></circle><circle cx="0.04257984180920782" cy="0.030936065910130175" r="0.05" fill="#f00"></circle><line x1="0.04257984180920782" y1="0.030936065910130175" x2="-0.28821050902803125" y2="0.486229924268823" stroke="#ff0" stroke-width="0.02"></line><line x1="-0.8090169943749471" y1="0.5877852522924736" x2="-0.7194683348535638" y2="0.7110384082601343" stroke="#ff0" stroke-width="0.02"></line><circle cx="-0.28821050902803125" cy="0.486229924268823" r="0.05" fill="#ff0"></circle><circle cx="-0.7194683348535638" cy="0.7110384082601343" r="0.05" fill="#ff0"></circle><circle cx="-0.8090169943749471" cy="0.5877852522924736" r="0.05" fill="#f00"></circle><line x1="-0.8090169943749471" y1="0.5877852522924736" x2="-0.8985656538963303" y2="0.46453209632481274" stroke="#ff0" stroke-width="0.02"></line><line x1="-0.0162640523355236" y1="-0.050055606120797604" x2="-0.5514940831406788" y2="0.1238511729031429" stroke="#ff0" stroke-width="0.02"></line><circle cx="-0.8985656538963303" cy="0.46453209632481274" r="0.05" fill="#ff0"></circle><circle cx="-0.5514940831406788" cy="0.1238511729031429" r="0.05" fill="#ff0"></circle><circle cx="-0.0162640523355236" cy="-0.050055606120797604" r="0.05" fill="#f00"></circle><line x1="-0.0162640523355236" y1="-0.050055606120797604" x2="0.5189659784696314" y2="-0.22396238514473912" stroke="#ff0" stroke-width="0.02"></line><line x1="1" y1="-7.347880794884119e-16" x2="0.9999999999999997" y2="-0.1523492792174134" stroke="#ff0" stroke-width="0.02"></line><circle cx="0.5189659784696314" cy="-0.22396238514473912" r="0.05" fill="#ff0"></circle><circle cx="0.9999999999999997" cy="-0.1523492792174134" r="0.05" fill="#ff0"></circle><circle cx="1" cy="-7.347880794884119e-16" r="0.05" fill="#f00"></circle><path d="M 1 0 C 1 0.15234927921741265 0.5189659784696318 0.22396238514473776 -0.01626405233552356 0.05005560612079761 C -0.551494083140679 -0.12385117290314249 -0.8985656538963309 -0.4645320963248122 -0.8090169943749476 -0.587785252292473 C -0.7194683348535642 -0.7110384082601339 -0.2882105090280316 -0.48622992426882283 0.0425798418092078 -0.03093606591013021 C 0.3733701926464472 0.4243577924485623 0.45390976912753783 0.903977999936199 0.30901699437494773 0.9510565162951535 C 0.16412421962235765 0.9981350326541081 -0.0526315789473683 0.562774158669505 -0.052631578947368474 1.9336528407589805e-17 C -0.052631578947368717 -0.562774158669505 0.16412421962235688 -0.9981350326541083 0.309016994374947 -0.9510565162951538 C 0.4539097691275371 -0.9039779999361993 0.37337019264644694 -0.4243577924485627 0.04257984180920782 0.030936065910130175 C -0.28821050902803125 0.486229924268823 -0.7194683348535638 0.7110384082601343 -0.8090169943749471 0.5877852522924736 C -0.8985656538963303 0.46453209632481274 -0.5514940831406788 0.1238511729031429 -0.0162640523355236 -0.050055606120797604 C 0.5189659784696314 -0.22396238514473912 0.9999999999999997 -0.1523492792174134 1 -7.347880794884119e-16 Z " fill="none" stroke="#f00" stroke-width="0.02"></path></svg>