<svg xmlns="http://www.w3.org/2000/svg" viewBox="-1.5 -1.5 3 3"><line x1="1" y1="0" x2="1" y2="0.07249806909996427" stroke="#ff0" stroke-width="0.02"></line><line x1="0.028092454034086115" y1="-0.08645968329955937" x2="0.5465214796158017" y2="0.08198811821077327" stroke="#ff0" stroke-width="0.02"></line><circle cx="1" cy="0.07249806909996427" r="0.05" fill="#ff0"></circle><circle cx="0.5465214796158017" cy="0.08198811821077327" r="0.05" fill="#ff0"></circle><circle cx="0.028092454034086115" cy="-0.08645968329955937" r="0.05" fill="#f00"></circle><line x1="0.028092454034086115" y1="-0.08645968329955937" x2="-0.49033657154762944" y2="-0.25490748480989206" stroke="#ff0" stroke-width="0.02"></line><line x1="-0.8090169943749473" y1="-0.5877852522924732" x2="-0.851630290211587" y2="-0.5291330823312329" stroke="#ff0" stroke-width="0.02"></line><circle cx="-0.49033657154762944" cy="-0.25490748480989206" r="0.05" fill="#ff0"></circle><circle cx="-0.851630290211587" cy="-0.5291330823312329" r="0.05" fill="#ff0"></circle><circle cx="-0.8090169943749473" cy="-0.5877852522924732" r="0.05" fill="#f00"></circle><line x1="-0.8090169943749473" y1="-0.5877852522924732" x2="-0.7664036985383078" y2="-0.6464374222537136" stroke="#ff0" stroke-width="0.02"></line><line x1="-0.07354699948863155" y1="0.05343502293567934" x2="-0.39395375805262045" y2="-0.38756704674856746" stroke="#ff0" stroke-width="0.02"></line><circle cx="-0.7664036985383078" cy="-0.6464374222537136" r="0.05" fill="#ff0"></circle><circle cx="-0.39395375805262045" cy="-0.38756704674856746" r="0.05" fill="#ff0"></circle><circle cx="-0.07354699948863155" cy="0.05343502293567934" r="0.05" fill="#f00"></circle><line x1="-0.07354699948863155" y1="0.05343502293567934" x2="0.2468597590753573" y2="0.4944370926199262" stroke="#ff0" stroke-width="0.02"></line><line x1="0.30901699437494723" y1="0.9510565162951536" x2="0.3779667554112846" y2="0.9286533808838954" stroke="#ff0" stroke-width="0.02"></line><circle cx="0.2468597590753573" cy="0.4944370926199262" r="0.05" fill="#ff0"></circle><circle cx="0.3779667554112846" cy="0.9286533808838954" r="0.05" fill="#ff0"></circle><circle cx="0.30901699437494723" cy="0.9510565162951536" r="0.05" fill="#f00"></circle><line x1="0.30901699437494723" y1="0.9510565162951536" x2="0.2400672333386099" y2="0.9734596517064119" stroke="#ff0" stroke-width="0.02"></line><line x1="0.09090909090909086" y1="2.2266305439042776e-17" x2="0.09090909090909076" y2="0.5451085363478282" stroke="#ff0" stroke-width="0.02"></line><circle cx="0.2400672333386099" cy="0.9734596517064119" r="0.05" fill="#ff0"></circle><circle cx="0.09090909090909076" cy="0.5451085363478282" r="0.05" fill="#ff0"></circle><circle cx="0.09090909090909086" cy="2.2266305439042776e-17" r="0.05" fill="#f00"></circle><line x1="0.09090909090909086" y1="2.2266305439042776e-17" x2="0.09090909090909102" y2="-0.5451085363478282" stroke="#ff0" stroke-width="0.02"></line><line x1="0.30901699437494773" y1="-0.9510565162951535" x2="0.2400672333386104" y2="-0.9734596517064117" stroke="#ff0" stroke-width="0.02"></line><circle cx="0.09090909090909102" cy="-0.5451085363478282" r="0.05" fill="#ff0"></circle><circle cx="0.2400672333386104" cy="-0.9734596517064117" r="0.05" fill="#ff0"></circle><circle cx="0.30901699437494773" cy="-0.9510565162951535" r="0.05" fill="#f00"></circle><line x1="0.30901699437494773" y1="-0.9510565162951535" x2="0.3779667554112851" y2="-0.9286533808838953" stroke="#ff0" stroke-width="0.02"></line><line x1="-0.07354699948863153" y1="-0.05343502293567937" x2="0.2468597590753576" y2="-0.49443709261992597" stroke="#ff0" stroke-width="0.02"></line><circle cx="0.3779667554112851" cy="-0.9286533808838953" r="0.05" fill="#ff0"></circle><circle cx="0.2468597590753576" cy="-0.49443709261992597" r="0.05" fill="#ff0"></circle><circle cx="-0.07354699948863153" cy="-0.05343502293567937" r="0.05" fill="#f00"></circle><line x1="-0.07354699948863153" y1="-0.05343502293567937" x2="-0.39395375805262073" y2="0.3875670467485673" stroke="#ff0" stroke-width="0.02"></line><line x1="-0.8090169943749477" y1="0.5877852522924728" x2="-0.766403698538308" y2="0.6464374222537133" stroke="#ff0" stroke-width="0.02"></line><circle cx="-0.39395375805262073" cy="0.3875670467485673" r="0.05" fill="#ff0"></circle><circle cx="-0.766403698538308" cy="0.6464374222537133" r="0.05" fill="#ff0"></circle><circle cx="-0.8090169943749477" cy="0.5877852522924728" r="0.05" fill="#f00"></circle><line x1="-0.8090169943749477" y1="0.5877852522924728" x2="-0.8516302902115872" y2="0.5291330823312325" stroke="#ff0" stroke-width="0.02"></line><line x1="0.028092454034086077" y1="0.08645968329955939" x2="-0.49033657154762955" y2="0.25490748480989184" stroke="#ff0" stroke-width="0.02"></line><circle cx="-0.8516302902115872" cy="0.5291330823312325" r="0.05" fill="#ff0"></circle><circle cx="-0.49033657154762955" cy="0.25490748480989184" r="0.05" fill="#ff0"></circle><circle cx="0.028092454034086077" cy="0.08645968329955939" r="0.05" fill="#f00"></circle><line x1="0.028092454034086077" y1="0.08645968329955939" x2="0.5465214796158018" y2="-0.08198811821077302" stroke="#ff0" stroke-width="0.02"></line><line x1="1" y1="4.898587196589413e-16" x2="1" y2="-0.07249806909996379" stroke="#ff0" stroke-width="0.02"></line><circle cx="0.5465214796158018" cy="-0.08198811821077302" r="0.05" fill="#ff0"></circle><circle cx="1" cy="-0.07249806909996379" r="0.05" fill="#ff0"></circle><circle cx="1" cy="4.898587196589413e-16" r="0.05" fill="#f00"></circle><path d="M 1 0 C 1 0.07249806909996427 0.5465214796158017 0.08198811821077327 0.028092454034086115 -0.08645968329955937 C -0.49033657154762944 -0.25490748480989206 -0.851630290211587 -0.5291330823312329 -0.8090169943749473 -0.5877852522924732 C -0.7664036985383078 -0.6464374222537136 -0.39395375805262045 -0.38756704674856746 -0.07354699948863155 0.05343502293567934 C 0.2468597590753573 0.4944370926199262 0.3779667554112846 0.9286533808838954 0.30901699437494723 0.9510565162951536 C 0.2400672333386099 0.9734596517064119 0.09090909090909076 0.5451085363478282 0.09090909090909086 2.2266305439042776e-17 C 0.09090909090909102 -0.5451085363478282 0.2400672333386104 -0.9734596517064117 0.30901699437494773 -0.9510565162951535 C 0.3779667554112851 -0.9286533808838953 0.2468597590753576 -0.49443709261992597 -0.07354699948863153 -0.05343502293567937 C -0.39395375805262073 0.3875670467485673 -0.766403698538308 0.6464374222537133 -0.8090169943749477 0.5877852522924728 C -0.8516302902115872 0.5291330823312325 -0.49033657154762955 0.25490748480989184 0.028092454034086077 0.08645968329955939 C 0.5465214796158018 -0.08198811821077302 1 -0.07249806909996379 1 4.898587196589413e-16 Z " fill="none" stroke="#f00" stroke-width="0.02"></path></svg>