<svg xmlns="http://www.w3.org/2000/svg" viewBox="-1.5 -1.5 3 3"><line x1="1" y1="0" x2="1" y2="0.4226149134610839" stroke="#ff0" stroke-width="0.02"></line><line x1="-0.16639376620189472" y1="0.5121073549281597" x2="0.4257012053595185" y2="0.7044906732289253" stroke="#ff0" stroke-width="0.02"></line><circle cx="1" cy="0.4226149134610839" r="0.05" fill="#ff0"></circle><circle cx="0.4257012053595185" cy="0.7044906732289253" r="0.05" fill="#ff0"></circle><circle cx="-0.16639376620189472" cy="0.5121073549281597" r="0.05" fill="#f00"></circle><line x1="-0.16639376620189472" y1="0.5121073549281597" x2="-0.758488737763308" y2="0.319724036627394" stroke="#ff0" stroke-width="0.02"></line><line x1="-0.8090169943749476" y1="-0.587785252292473" x2="-1.0574238079062324" y2="-0.24588260522615837" stroke="#ff0" stroke-width="0.02"></line><circle cx="-0.758488737763308" cy="0.319724036627394" r="0.05" fill="#ff0"></circle><circle cx="-1.0574238079062324" cy="-0.24588260522615837" r="0.05" fill="#ff0"></circle><circle cx="-0.8090169943749476" cy="-0.587785252292473" r="0.05" fill="#f00"></circle><line x1="-0.8090169943749476" y1="-0.587785252292473" x2="-0.5606101808436627" y2="-0.9296878993587877" stroke="#ff0" stroke-width="0.02"></line><line x1="0.43562453543266394" y1="-0.31649975123440877" x2="0.06968971843980812" y2="-0.820165817414303" stroke="#ff0" stroke-width="0.02"></line><circle cx="-0.5606101808436627" cy="-0.9296878993587877" r="0.05" fill="#ff0"></circle><circle cx="0.06968971843980812" cy="-0.820165817414303" r="0.05" fill="#ff0"></circle><circle cx="0.43562453543266394" cy="-0.31649975123440877" r="0.05" fill="#f00"></circle><line x1="0.43562453543266394" y1="-0.31649975123440877" x2="0.80155935242552" y2="0.1871663149454854" stroke="#ff0" stroke-width="0.02"></line><line x1="0.30901699437494773" y1="0.9510565162951535" x2="0.710947661705624" y2="0.8204613259593808" stroke="#ff0" stroke-width="0.02"></line><circle cx="0.80155935242552" cy="0.1871663149454854" r="0.05" fill="#ff0"></circle><circle cx="0.710947661705624" cy="0.8204613259593808" r="0.05" fill="#ff0"></circle><circle cx="0.30901699437494773" cy="0.9510565162951535" r="0.05" fill="#f00"></circle><line x1="0.30901699437494773" y1="0.9510565162951535" x2="-0.09291367295572846" y2="1.0816517066309264" stroke="#ff0" stroke-width="0.02"></line><line x1="-0.5384615384615385" y1="1.9782755986226476e-16" x2="-0.5384615384615382" y2="0.6225654957582574" stroke="#ff0" stroke-width="0.02"></line><circle cx="-0.09291367295572846" cy="1.0816517066309264" r="0.05" fill="#ff0"></circle><circle cx="-0.5384615384615382" cy="0.6225654957582574" r="0.05" fill="#ff0"></circle><circle cx="-0.5384615384615385" cy="1.9782755986226476e-16" r="0.05" fill="#f00"></circle><line x1="-0.5384615384615385" y1="1.9782755986226476e-16" x2="-0.5384615384615388" y2="-0.6225654957582569" stroke="#ff0" stroke-width="0.02"></line><line x1="0.309016994374947" y1="-0.9510565162951538" x2="-0.09291367295572926" y2="-1.0816517066309264" stroke="#ff0" stroke-width="0.02"></line><circle cx="-0.5384615384615388" cy="-0.6225654957582569" r="0.05" fill="#ff0"></circle><circle cx="-0.09291367295572926" cy="-1.0816517066309264" r="0.05" fill="#ff0"></circle><circle cx="0.309016994374947" cy="-0.9510565162951538" r="0.05" fill="#f00"></circle><line x1="0.309016994374947" y1="-0.9510565162951538" x2="0.7109476617056234" y2="-0.8204613259593813" stroke="#ff0" stroke-width="0.02"></line><line x1="0.43562453543266416" y1="0.31649975123440843" x2="0.8015593524255197" y2="-0.18716631494548602" stroke="#ff0" stroke-width="0.02"></line><circle cx="0.7109476617056234" cy="-0.8204613259593813" r="0.05" fill="#ff0"></circle><circle cx="0.8015593524255197" cy="-0.18716631494548602" r="0.05" fill="#ff0"></circle><circle cx="0.43562453543266416" cy="0.31649975123440843" r="0.05" fill="#f00"></circle><line x1="0.43562453543266416" y1="0.31649975123440843" x2="0.06968971843980869" y2="0.820165817414303" stroke="#ff0" stroke-width="0.02"></line><line x1="-0.8090169943749471" y1="0.5877852522924736" x2="-0.560610180843662" y2="0.929687899358788" stroke="#ff0" stroke-width="0.02"></line><circle cx="0.06968971843980869" cy="0.820165817414303" r="0.05" fill="#ff0"></circle><circle cx="-0.560610180843662" cy="0.929687899358788" r="0.05" fill="#ff0"></circle><circle cx="-0.8090169943749471" cy="0.5877852522924736" r="0.05" fill="#f00"></circle><line x1="-0.8090169943749471" y1="0.5877852522924736" x2="-1.0574238079062317" y2="0.24588260522615865" stroke="#ff0" stroke-width="0.02"></line><line x1="-0.16639376620189514" y1="-0.5121073549281596" x2="-0.7584887377633083" y2="-0.3197240366273935" stroke="#ff0" stroke-width="0.02"></line><circle cx="-1.0574238079062317" cy="0.24588260522615865" r="0.05" fill="#ff0"></circle><circle cx="-0.7584887377633083" cy="-0.3197240366273935" r="0.05" fill="#ff0"></circle><circle cx="-0.16639376620189514" cy="-0.5121073549281596" r="0.05" fill="#f00"></circle><line x1="-0.16639376620189514" y1="-0.5121073549281596" x2="0.4257012053595176" y2="-0.7044906732289267" stroke="#ff0" stroke-width="0.02"></line><line x1="1" y1="-7.347880794884119e-16" x2="0.999999999999999" y2="-0.42261491346108465" stroke="#ff0" stroke-width="0.02"></line><circle cx="0.4257012053595176" cy="-0.7044906732289267" r="0.05" fill="#ff0"></circle><circle cx="0.999999999999999" cy="-0.42261491346108465" r="0.05" fill="#ff0"></circle><circle cx="1" cy="-7.347880794884119e-16" r="0.05" fill="#f00"></circle><path d="M 1 0 C 1 0.4226149134610839 0.4257012053595185 0.7044906732289253 -0.16639376620189472 0.5121073549281597 C -0.758488737763308 0.319724036627394 -1.0574238079062324 -0.24588260522615837 -0.8090169943749476 -0.587785252292473 C -0.5606101808436627 -0.9296878993587877 0.06968971843980812 -0.820165817414303 0.43562453543266394 -0.31649975123440877 C 0.80155935242552 0.1871663149454854 0.710947661705624 0.8204613259593808 0.30901699437494773 0.9510565162951535 C -0.09291367295572846 1.0816517066309264 -0.5384615384615382 0.6225654957582574 -0.5384615384615385 1.9782755986226476e-16 C -0.5384615384615388 -0.6225654957582569 -0.09291367295572926 -1.0816517066309264 0.309016994374947 -0.9510565162951538 C 0.7109476617056234 -0.8204613259593813 0.8015593524255197 -0.18716631494548602 0.43562453543266416 0.31649975123440843 C 0.06968971843980869 0.820165817414303 -0.560610180843662 0.929687899358788 -0.8090169943749471 0.5877852522924736 C -1.0574238079062317 0.24588260522615865 -0.7584887377633083 -0.3197240366273935 -0.16639376620189514 -0.5121073549281596 C 0.4257012053595176 -0.7044906732289267 0.999999999999999 -0.42261491346108465 1 -7.347880794884119e-16 Z " fill="none" stroke="#f00" stroke-width="0.02"></path></svg>