<svg xmlns="http://www.w3.org/2000/svg" viewBox="-1.5 -1.5 3 3"><line x1="1" y1="0" x2="1" y2="0.15507787973476356" stroke="#ff0" stroke-width="0.02"></line><line x1="0.15450849718747373" y1="0.47552825814757677" x2="0.6250546578823857" y2="0.32263854255102564" stroke="#ff0" stroke-width="0.02"></line><circle cx="1" cy="0.15507787973476356" r="0.05" fill="#ff0"></circle><circle cx="0.6250546578823857" cy="0.32263854255102564" r="0.05" fill="#ff0"></circle><circle cx="0.15450849718747373" cy="0.47552825814757677" r="0.05" fill="#f00"></circle><line x1="0.15450849718747373" y1="0.47552825814757677" x2="-0.3160376635074382" y2="0.6284179737441279" stroke="#ff0" stroke-width="0.02"></line><line x1="-0.8090169943749473" y1="0.5877852522924732" x2="-0.7178645037100675" y2="0.7132458924495312" stroke="#ff0" stroke-width="0.02"></line><circle cx="-0.3160376635074382" cy="0.6284179737441279" r="0.05" fill="#ff0"></circle><circle cx="-0.7178645037100675" cy="0.7132458924495312" r="0.05" fill="#ff0"></circle><circle cx="-0.8090169943749473" cy="0.5877852522924732" r="0.05" fill="#f00"></circle><line x1="-0.8090169943749473" y1="0.5877852522924732" x2="-0.9001694850398271" y2="0.46232461213541526" stroke="#ff0" stroke-width="0.02"></line><line x1="-0.4045084971874738" y1="-0.2938926261462365" x2="-0.6953220177726992" y2="0.10637784581583924" stroke="#ff0" stroke-width="0.02"></line><circle cx="-0.9001694850398271" cy="0.46232461213541526" r="0.05" fill="#ff0"></circle><circle cx="-0.6953220177726992" cy="0.10637784581583924" r="0.05" fill="#ff0"></circle><circle cx="-0.4045084971874738" cy="-0.2938926261462365" r="0.05" fill="#f00"></circle><line x1="-0.4045084971874738" y1="-0.2938926261462365" x2="-0.11369497660224848" y2="-0.6941630981083123" stroke="#ff0" stroke-width="0.02"></line><line x1="0.30901699437494723" y1="-0.9510565162951536" x2="0.1615291663199642" y2="-0.9989782165848298" stroke="#ff0" stroke-width="0.02"></line><circle cx="-0.11369497660224848" cy="-0.6941630981083123" r="0.05" fill="#ff0"></circle><circle cx="0.1615291663199642" cy="-0.9989782165848298" r="0.05" fill="#ff0"></circle><circle cx="0.30901699437494723" cy="-0.9510565162951536" r="0.05" fill="#f00"></circle><line x1="0.30901699437494723" y1="-0.9510565162951536" x2="0.45650482242993023" y2="-0.9031348160054775" stroke="#ff0" stroke-width="0.02"></line><line x1="0.5" y1="-1.2246467991473532e-16" x2="0.49999999999999994" y2="-0.4947615127310494" stroke="#ff0" stroke-width="0.02"></line><circle cx="0.45650482242993023" cy="-0.9031348160054775" r="0.05" fill="#ff0"></circle><circle cx="0.49999999999999994" cy="-0.4947615127310494" r="0.05" fill="#ff0"></circle><circle cx="0.5" cy="-1.2246467991473532e-16" r="0.05" fill="#f00"></circle><line x1="0.5" y1="-1.2246467991473532e-16" x2="0.5000000000000001" y2="0.4947615127310491" stroke="#ff0" stroke-width="0.02"></line><line x1="0.30901699437494773" y1="0.9510565162951535" x2="0.4565048224299308" y2="0.9031348160054772" stroke="#ff0" stroke-width="0.02"></line><circle cx="0.5000000000000001" cy="0.4947615127310491" r="0.05" fill="#ff0"></circle><circle cx="0.4565048224299308" cy="0.9031348160054772" r="0.05" fill="#ff0"></circle><circle cx="0.30901699437494773" cy="0.9510565162951535" r="0.05" fill="#f00"></circle><line x1="0.30901699437494773" y1="0.9510565162951535" x2="0.16152916631996475" y2="0.9989782165848298" stroke="#ff0" stroke-width="0.02"></line><line x1="-0.40450849718747356" y1="0.2938926261462367" x2="-0.11369497660224803" y2="0.6941630981083122" stroke="#ff0" stroke-width="0.02"></line><circle cx="0.16152916631996475" cy="0.9989782165848298" r="0.05" fill="#ff0"></circle><circle cx="-0.11369497660224803" cy="0.6941630981083122" r="0.05" fill="#ff0"></circle><circle cx="-0.40450849718747356" cy="0.2938926261462367" r="0.05" fill="#f00"></circle><line x1="-0.40450849718747356" y1="0.2938926261462367" x2="-0.6953220177726992" y2="-0.10637784581583894" stroke="#ff0" stroke-width="0.02"></line><line x1="-0.8090169943749478" y1="-0.5877852522924728" x2="-0.9001694850398275" y2="-0.46232461213541476" stroke="#ff0" stroke-width="0.02"></line><circle cx="-0.6953220177726992" cy="-0.10637784581583894" r="0.05" fill="#ff0"></circle><circle cx="-0.9001694850398275" cy="-0.46232461213541476" r="0.05" fill="#ff0"></circle><circle cx="-0.8090169943749478" cy="-0.5877852522924728" r="0.05" fill="#f00"></circle><line x1="-0.8090169943749478" y1="-0.5877852522924728" x2="-0.7178645037100679" y2="-0.7132458924495308" stroke="#ff0" stroke-width="0.02"></line><line x1="0.1545084971874735" y1="-0.4755282581475769" x2="-0.3160376635074385" y2="-0.6284179737441279" stroke="#ff0" stroke-width="0.02"></line><circle cx="-0.7178645037100679" cy="-0.7132458924495308" r="0.05" fill="#ff0"></circle><circle cx="-0.3160376635074385" cy="-0.6284179737441279" r="0.05" fill="#ff0"></circle><circle cx="0.1545084971874735" cy="-0.4755282581475769" r="0.05" fill="#f00"></circle><line x1="0.1545084971874735" y1="-0.4755282581475769" x2="0.6250546578823856" y2="-0.32263854255102603" stroke="#ff0" stroke-width="0.02"></line><line x1="1" y1="-4.898587196589413e-16" x2="1" y2="-0.15507787973476403" stroke="#ff0" stroke-width="0.02"></line><circle cx="0.6250546578823856" cy="-0.32263854255102603" r="0.05" fill="#ff0"></circle><circle cx="1" cy="-0.15507787973476403" r="0.05" fill="#ff0"></circle><circle cx="1" cy="-4.898587196589413e-16" r="0.05" fill="#f00"></circle><path d="M 1 0 C 1 0.15507787973476356 0.6250546578823857 0.32263854255102564 0.15450849718747373 0.47552825814757677 C -0.3160376635074382 0.6284179737441279 -0.7178645037100675 0.7132458924495312 -0.8090169943749473 0.5877852522924732 C -0.9001694850398271 0.46232461213541526 -0.6953220177726992 0.10637784581583924 -0.4045084971874738 -0.2938926261462365 C -0.11369497660224848 -0.6941630981083123 0.1615291663199642 -0.9989782165848298 0.30901699437494723 -0.9510565162951536 C 0.45650482242993023 -0.9031348160054775 0.49999999999999994 -0.4947615127310494 0.5 -1.2246467991473532e-16 C 0.5000000000000001 0.4947615127310491 0.4565048224299308 0.9031348160054772 0.30901699437494773 0.9510565162951535 C 0.16152916631996475 0.9989782165848298 -0.11369497660224803 0.6941630981083122 -0.40450849718747356 0.2938926261462367 C -0.6953220177726992 -0.10637784581583894 -0.9001694850398275 -0.46232461213541476 -0.8090169943749478 -0.5877852522924728 C -0.7178645037100679 -0.7132458924495308 -0.3160376635074385 -0.6284179737441279 0.1545084971874735 -0.4755282581475769 C 0.6250546578823856 -0.32263854255102603 1 -0.15507787973476403 1 -4.898587196589413e-16 Z " fill="none" stroke="#f00" stroke-width="0.02"></path></svg>