<svg xmlns="http://www.w3.org/2000/svg" viewBox="-1.5 -1.5 3 3"><line x1="1" y1="0" x2="1" y2="0.1821216210472395" stroke="#ff0" stroke-width="0.02"></line><line x1="0.2696723314583158" y1="-0.19592841743082437" x2="0.5422248023718986" y2="0.17920787591437637" stroke="#ff0" stroke-width="0.02"></line><circle cx="1" cy="0.1821216210472395" r="0.05" fill="#ff0"></circle><circle cx="0.5422248023718986" cy="0.17920787591437637" r="0.05" fill="#ff0"></circle><circle cx="0.2696723314583158" cy="-0.19592841743082437" r="0.05" fill="#f00"></circle><line x1="0.2696723314583158" y1="-0.19592841743082437" x2="-0.0028801394552669083" y2="-0.571064710776025" stroke="#ff0" stroke-width="0.02"></line><line x1="0.30901699437494745" y1="-0.9510565162951534" x2="0.13580903991973375" y2="-1.0073351922418645" stroke="#ff0" stroke-width="0.02"></line><circle cx="-0.0028801394552669083" cy="-0.571064710776025" r="0.05" fill="#ff0"></circle><circle cx="0.13580903991973375" cy="-1.0073351922418645" r="0.05" fill="#ff0"></circle><circle cx="0.30901699437494745" cy="-0.9510565162951534" r="0.05" fill="#f00"></circle><line x1="0.30901699437494745" y1="-0.9510565162951534" x2="0.48222494883016115" y2="-0.8947778403484423" stroke="#ff0" stroke-width="0.02"></line><line x1="-0.10300566479164912" y1="-0.3170188387650512" x2="0.33799349686429486" y2="-0.4603081524092669" stroke="#ff0" stroke-width="0.02"></line><circle cx="0.48222494883016115" cy="-0.8947778403484423" r="0.05" fill="#ff0"></circle><circle cx="0.33799349686429486" cy="-0.4603081524092669" r="0.05" fill="#ff0"></circle><circle cx="-0.10300566479164912" cy="-0.3170188387650512" r="0.05" fill="#f00"></circle><line x1="-0.10300566479164912" y1="-0.3170188387650512" x2="-0.5440048264475932" y2="-0.17372952512083562" stroke="#ff0" stroke-width="0.02"></line><line x1="-0.8090169943749473" y1="-0.5877852522924732" x2="-0.9160653973501132" y2="-0.4404457658221424" stroke="#ff0" stroke-width="0.02"></line><circle cx="-0.5440048264475932" cy="-0.17372952512083562" r="0.05" fill="#ff0"></circle><circle cx="-0.9160653973501132" cy="-0.4404457658221424" r="0.05" fill="#ff0"></circle><circle cx="-0.8090169943749473" cy="-0.5877852522924732" r="0.05" fill="#f00"></circle><line x1="-0.8090169943749473" y1="-0.5877852522924732" x2="-0.7019685913997815" y2="-0.7351247387628042" stroke="#ff0" stroke-width="0.02"></line><line x1="-0.3333333333333333" y1="-4.082155997157844e-17" x2="-0.33333333333333326" y2="-0.46369395940197006" stroke="#ff0" stroke-width="0.02"></line><circle cx="-0.7019685913997815" cy="-0.7351247387628042" r="0.05" fill="#ff0"></circle><circle cx="-0.33333333333333326" cy="-0.46369395940197006" r="0.05" fill="#ff0"></circle><circle cx="-0.3333333333333333" cy="-4.082155997157844e-17" r="0.05" fill="#f00"></circle><line x1="-0.3333333333333333" y1="-4.082155997157844e-17" x2="-0.3333333333333334" y2="0.46369395940197006" stroke="#ff0" stroke-width="0.02"></line><line x1="-0.8090169943749476" y1="0.587785252292473" x2="-0.7019685913997817" y2="0.735124738762804" stroke="#ff0" stroke-width="0.02"></line><circle cx="-0.3333333333333334" cy="0.46369395940197006" r="0.05" fill="#ff0"></circle><circle cx="-0.7019685913997817" cy="0.735124738762804" r="0.05" fill="#ff0"></circle><circle cx="-0.8090169943749476" cy="0.587785252292473" r="0.05" fill="#f00"></circle><line x1="-0.8090169943749476" y1="0.587785252292473" x2="-0.9160653973501134" y2="0.44044576582214223" stroke="#ff0" stroke-width="0.02"></line><line x1="-0.10300566479164919" y1="0.31701883876505116" x2="-0.5440048264475932" y2="0.17372952512083545" stroke="#ff0" stroke-width="0.02"></line><circle cx="-0.9160653973501134" cy="0.44044576582214223" r="0.05" fill="#ff0"></circle><circle cx="-0.5440048264475932" cy="0.17372952512083545" r="0.05" fill="#ff0"></circle><circle cx="-0.10300566479164919" cy="0.31701883876505116" r="0.05" fill="#f00"></circle><line x1="-0.10300566479164919" y1="0.31701883876505116" x2="0.3379934968642948" y2="0.4603081524092669" stroke="#ff0" stroke-width="0.02"></line><line x1="0.30901699437494723" y1="0.9510565162951536" x2="0.4822249488301609" y2="0.8947778403484425" stroke="#ff0" stroke-width="0.02"></line><circle cx="0.3379934968642948" cy="0.4603081524092669" r="0.05" fill="#ff0"></circle><circle cx="0.4822249488301609" cy="0.8947778403484425" r="0.05" fill="#ff0"></circle><circle cx="0.30901699437494723" cy="0.9510565162951536" r="0.05" fill="#f00"></circle><line x1="0.30901699437494723" y1="0.9510565162951536" x2="0.13580903991973353" y2="1.0073351922418647" stroke="#ff0" stroke-width="0.02"></line><line x1="0.26967233145831576" y1="0.19592841743082445" x2="-0.002880139455267056" y2="0.571064710776025" stroke="#ff0" stroke-width="0.02"></line><circle cx="0.13580903991973353" cy="1.0073351922418647" r="0.05" fill="#ff0"></circle><circle cx="-0.002880139455267056" cy="0.571064710776025" r="0.05" fill="#ff0"></circle><circle cx="0.26967233145831576" cy="0.19592841743082445" r="0.05" fill="#f00"></circle><line x1="0.26967233145831576" y1="0.19592841743082445" x2="0.5422248023718986" y2="-0.17920787591437617" stroke="#ff0" stroke-width="0.02"></line><line x1="1" y1="2.4492935982947064e-16" x2="1" y2="-0.18212162104723925" stroke="#ff0" stroke-width="0.02"></line><circle cx="0.5422248023718986" cy="-0.17920787591437617" r="0.05" fill="#ff0"></circle><circle cx="1" cy="-0.18212162104723925" r="0.05" fill="#ff0"></circle><circle cx="1" cy="2.4492935982947064e-16" r="0.05" fill="#f00"></circle><path d="M 1 0 C 1 0.1821216210472395 0.5422248023718986 0.17920787591437637 0.2696723314583158 -0.19592841743082437 C -0.0028801394552669083 -0.571064710776025 0.13580903991973375 -1.0073351922418645 0.30901699437494745 -0.9510565162951534 C 0.48222494883016115 -0.8947778403484423 0.33799349686429486 -0.4603081524092669 -0.10300566479164912 -0.3170188387650512 C -0.5440048264475932 -0.17372952512083562 -0.9160653973501132 -0.4404457658221424 -0.8090169943749473 -0.5877852522924732 C -0.7019685913997815 -0.7351247387628042 -0.33333333333333326 -0.46369395940197006 -0.3333333333333333 -4.082155997157844e-17 C -0.3333333333333334 0.46369395940197006 -0.7019685913997817 0.735124738762804 -0.8090169943749476 0.587785252292473 C -0.9160653973501134 0.44044576582214223 -0.5440048264475932 0.17372952512083545 -0.10300566479164919 0.31701883876505116 C 0.3379934968642948 0.4603081524092669 0.4822249488301609 0.8947778403484425 0.30901699437494723 0.9510565162951536 C 0.13580903991973353 1.0073351922418647 -0.002880139455267056 0.571064710776025 0.26967233145831576 0.19592841743082445 C 0.5422248023718986 -0.17920787591437617 1 -0.18212162104723925 1 2.4492935982947064e-16 Z " fill="none" stroke="#f00" stroke-width="0.02"></path></svg>