<svg xmlns="http://www.w3.org/2000/svg" viewBox="-1.5 -1.5 3 3"><line x1="1" y1="0" x2="1" y2="0.08007896216161894" stroke="#ff0" stroke-width="0.02"></line><line x1="0.6292354400694036" y1="0.4571663073385902" x2="0.8028382976764731" y2="0.2182224727860881" stroke="#ff0" stroke-width="0.02"></line><circle cx="1" cy="0.08007896216161894" r="0.05" fill="#ff0"></circle><circle cx="0.8028382976764731" cy="0.2182224727860881" r="0.05" fill="#ff0"></circle><circle cx="0.6292354400694036" cy="0.4571663073385902" r="0.05" fill="#f00"></circle><line x1="0.6292354400694036" y1="0.4571663073385902" x2="0.455632582462334" y2="0.6961101418910922" stroke="#ff0" stroke-width="0.02"></line><line x1="0.3090169943749475" y1="0.9510565162951535" x2="0.3851766131569082" y2="0.9263107560953048" stroke="#ff0" stroke-width="0.02"></line><circle cx="0.455632582462334" cy="0.6961101418910922" r="0.05" fill="#ff0"></circle><circle cx="0.3851766131569082" cy="0.9263107560953048" r="0.05" fill="#ff0"></circle><circle cx="0.3090169943749475" cy="0.9510565162951535" r="0.05" fill="#f00"></circle><line x1="0.3090169943749475" y1="0.9510565162951535" x2="0.23285737559298678" y2="0.9758022764950022" stroke="#ff0" stroke-width="0.02"></line><line x1="-0.2403465511805146" y1="0.7397106237851195" x2="0.040548772971832174" y2="0.8309790471819438" stroke="#ff0" stroke-width="0.02"></line><circle cx="0.23285737559298678" cy="0.9758022764950022" r="0.05" fill="#ff0"></circle><circle cx="0.040548772971832174" cy="0.8309790471819438" r="0.05" fill="#ff0"></circle><circle cx="-0.2403465511805146" cy="0.7397106237851195" r="0.05" fill="#f00"></circle><line x1="-0.2403465511805146" y1="0.7397106237851195" x2="-0.5212418753328614" y2="0.6484422003882953" stroke="#ff0" stroke-width="0.02"></line><line x1="-0.8090169943749473" y1="0.5877852522924732" x2="-0.7619477613974608" y2="0.6525704935731313" stroke="#ff0" stroke-width="0.02"></line><circle cx="-0.5212418753328614" cy="0.6484422003882953" r="0.05" fill="#ff0"></circle><circle cx="-0.7619477613974608" cy="0.6525704935731313" r="0.05" fill="#ff0"></circle><circle cx="-0.8090169943749473" cy="0.5877852522924732" r="0.05" fill="#f00"></circle><line x1="-0.8090169943749473" y1="0.5877852522924732" x2="-0.856086227352434" y2="0.5230000110118151" stroke="#ff0" stroke-width="0.02"></line><line x1="-0.7777777777777778" y1="9.52503066003497e-17" x2="-0.7777777777777778" y2="0.2953508223113557" stroke="#ff0" stroke-width="0.02"></line><circle cx="-0.856086227352434" cy="0.5230000110118151" r="0.05" fill="#ff0"></circle><circle cx="-0.7777777777777778" cy="0.2953508223113557" r="0.05" fill="#ff0"></circle><circle cx="-0.7777777777777778" cy="9.52503066003497e-17" r="0.05" fill="#f00"></circle><line x1="-0.7777777777777778" y1="9.52503066003497e-17" x2="-0.7777777777777778" y2="-0.2953508223113555" stroke="#ff0" stroke-width="0.02"></line><line x1="-0.8090169943749476" y1="-0.587785252292473" x2="-0.8560862273524342" y2="-0.5230000110118149" stroke="#ff0" stroke-width="0.02"></line><circle cx="-0.7777777777777778" cy="-0.2953508223113555" r="0.05" fill="#ff0"></circle><circle cx="-0.8560862273524342" cy="-0.5230000110118149" r="0.05" fill="#ff0"></circle><circle cx="-0.8090169943749476" cy="-0.587785252292473" r="0.05" fill="#f00"></circle><line x1="-0.8090169943749476" y1="-0.587785252292473" x2="-0.761947761397461" y2="-0.6525704935731311" stroke="#ff0" stroke-width="0.02"></line><line x1="-0.2403465511805148" y1="-0.7397106237851193" x2="-0.5212418753328615" y2="-0.648442200388295" stroke="#ff0" stroke-width="0.02"></line><circle cx="-0.761947761397461" cy="-0.6525704935731311" r="0.05" fill="#ff0"></circle><circle cx="-0.5212418753328615" cy="-0.648442200388295" r="0.05" fill="#ff0"></circle><circle cx="-0.2403465511805148" cy="-0.7397106237851193" r="0.05" fill="#f00"></circle><line x1="-0.2403465511805148" y1="-0.7397106237851193" x2="0.04054877297183198" y2="-0.8309790471819437" stroke="#ff0" stroke-width="0.02"></line><line x1="0.30901699437494723" y1="-0.9510565162951536" x2="0.2328573755929865" y2="-0.9758022764950022" stroke="#ff0" stroke-width="0.02"></line><circle cx="0.04054877297183198" cy="-0.8309790471819437" r="0.05" fill="#ff0"></circle><circle cx="0.2328573755929865" cy="-0.9758022764950022" r="0.05" fill="#ff0"></circle><circle cx="0.30901699437494723" cy="-0.9510565162951536" r="0.05" fill="#f00"></circle><line x1="0.30901699437494723" y1="-0.9510565162951536" x2="0.38517661315690793" y2="-0.9263107560953051" stroke="#ff0" stroke-width="0.02"></line><line x1="0.6292354400694036" y1="-0.45716630733859037" x2="0.45563258246233396" y2="-0.6961101418910923" stroke="#ff0" stroke-width="0.02"></line><circle cx="0.38517661315690793" cy="-0.9263107560953051" r="0.05" fill="#ff0"></circle><circle cx="0.45563258246233396" cy="-0.6961101418910923" r="0.05" fill="#ff0"></circle><circle cx="0.6292354400694036" cy="-0.45716630733859037" r="0.05" fill="#f00"></circle><line x1="0.6292354400694036" y1="-0.45716630733859037" x2="0.8028382976764732" y2="-0.2182224727860884" stroke="#ff0" stroke-width="0.02"></line><line x1="1" y1="-2.4492935982947064e-16" x2="1" y2="-0.0800789621616192" stroke="#ff0" stroke-width="0.02"></line><circle cx="0.8028382976764732" cy="-0.2182224727860884" r="0.05" fill="#ff0"></circle><circle cx="1" cy="-0.0800789621616192" r="0.05" fill="#ff0"></circle><circle cx="1" cy="-2.4492935982947064e-16" r="0.05" fill="#f00"></circle><path d="M 1 0 C 1 0.08007896216161894 0.8028382976764731 0.2182224727860881 0.6292354400694036 0.4571663073385902 C 0.455632582462334 0.6961101418910922 0.3851766131569082 0.9263107560953048 0.3090169943749475 0.9510565162951535 C 0.23285737559298678 0.9758022764950022 0.040548772971832174 0.8309790471819438 -0.2403465511805146 0.7397106237851195 C -0.5212418753328614 0.6484422003882953 -0.7619477613974608 0.6525704935731313 -0.8090169943749473 0.5877852522924732 C -0.856086227352434 0.5230000110118151 -0.7777777777777778 0.2953508223113557 -0.7777777777777778 9.52503066003497e-17 C -0.7777777777777778 -0.2953508223113555 -0.8560862273524342 -0.5230000110118149 -0.8090169943749476 -0.587785252292473 C -0.761947761397461 -0.6525704935731311 -0.5212418753328615 -0.648442200388295 -0.2403465511805148 -0.7397106237851193 C 0.04054877297183198 -0.8309790471819437 0.2328573755929865 -0.9758022764950022 0.30901699437494723 -0.9510565162951536 C 0.38517661315690793 -0.9263107560953051 0.45563258246233396 -0.6961101418910923 0.6292354400694036 -0.45716630733859037 C 0.8028382976764732 -0.2182224727860884 1 -0.0800789621616192 1 -2.4492935982947064e-16 Z " fill="none" stroke="#f00" stroke-width="0.02"></path></svg>