<svg xmlns="http://www.w3.org/2000/svg" viewBox="-1.5 -1.5 3 3"><line x1="1" y1="0" x2="1" y2="0.16419360183675077" stroke="#ff0" stroke-width="0.02"></line><line x1="0.10114587907105199" y1="0.44314905099173785" x2="0.6026777409933922" y2="0.328677676309222" stroke="#ff0" stroke-width="0.02"></line><circle cx="1" cy="0.16419360183675077" r="0.05" fill="#ff0"></circle><circle cx="0.6026777409933922" cy="0.328677676309222" r="0.05" fill="#ff0"></circle><circle cx="0.10114587907105199" cy="0.44314905099173785" r="0.05" fill="#f00"></circle><line x1="0.10114587907105199" y1="0.44314905099173785" x2="-0.4003859828512882" y2="0.5576204256742537" stroke="#ff0" stroke-width="0.02"></line><line x1="-0.9009688679024191" y1="0.4338837391175583" x2="-0.82972793399831" y2="0.5818170626812362" stroke="#ff0" stroke-width="0.02"></line><circle cx="-0.4003859828512882" cy="0.5576204256742537" r="0.05" fill="#ff0"></circle><circle cx="-0.82972793399831" cy="0.5818170626812362" r="0.05" fill="#ff0"></circle><circle cx="-0.9009688679024191" cy="0.4338837391175583" r="0.05" fill="#f00"></circle><line x1="-0.9009688679024191" y1="0.4338837391175583" x2="-0.9722098018065282" y2="0.28595041555388034" stroke="#ff0" stroke-width="0.02"></line><line x1="-0.28340445539033343" y1="-0.355377946576377" x2="-0.6856017811743196" y2="-0.034636282183981175" stroke="#ff0" stroke-width="0.02"></line><circle cx="-0.9722098018065282" cy="0.28595041555388034" r="0.05" fill="#ff0"></circle><circle cx="-0.6856017811743196" cy="-0.034636282183981175" r="0.05" fill="#ff0"></circle><circle cx="-0.28340445539033343" cy="-0.355377946576377" r="0.05" fill="#f00"></circle><line x1="-0.28340445539033343" y1="-0.355377946576377" x2="0.11879287039365283" y2="-0.6761196109687729" stroke="#ff0" stroke-width="0.02"></line><line x1="0.6234898018587334" y1="-0.7818314824680298" x2="0.49511807472294106" y2="-0.8842045187436973" stroke="#ff0" stroke-width="0.02"></line><circle cx="0.11879287039365283" cy="-0.6761196109687729" r="0.05" fill="#ff0"></circle><circle cx="0.49511807472294106" cy="-0.8842045187436973" r="0.05" fill="#ff0"></circle><circle cx="0.6234898018587334" cy="-0.7818314824680298" r="0.05" fill="#f00"></circle><line x1="0.6234898018587334" y1="-0.7818314824680298" x2="0.7518615289945257" y2="-0.6794584461923624" stroke="#ff0" stroke-width="0.02"></line><line x1="0.4095313035920086" y1="0.19721988141707172" x2="0.6327339802396255" y2="-0.26626525241392146" stroke="#ff0" stroke-width="0.02"></line><circle cx="0.7518615289945257" cy="-0.6794584461923624" r="0.05" fill="#ff0"></circle><circle cx="0.6327339802396255" cy="-0.26626525241392146" r="0.05" fill="#ff0"></circle><circle cx="0.4095313035920086" cy="0.19721988141707172" r="0.05" fill="#f00"></circle><line x1="0.4095313035920086" y1="0.19721988141707172" x2="0.18632862694439184" y2="0.660705015248065" stroke="#ff0" stroke-width="0.02"></line><line x1="-0.2225209339563141" y1="0.9749279121818237" x2="-0.062444008523997" y2="1.0114644258121885" stroke="#ff0" stroke-width="0.02"></line><circle cx="0.18632862694439184" cy="0.660705015248065" r="0.05" fill="#ff0"></circle><circle cx="-0.062444008523997" cy="1.0114644258121885" r="0.05" fill="#ff0"></circle><circle cx="-0.2225209339563141" cy="0.9749279121818237" r="0.05" fill="#f00"></circle><line x1="-0.2225209339563141" y1="0.9749279121818237" x2="-0.3825978593886312" y2="0.9383913985514587" stroke="#ff0" stroke-width="0.02"></line><line x1="-0.4545454545454544" y1="1.6699729079282084e-16" x2="-0.45454545454545425" y2="0.5144296882422266" stroke="#ff0" stroke-width="0.02"></line><circle cx="-0.3825978593886312" cy="0.9383913985514587" r="0.05" fill="#ff0"></circle><circle cx="-0.45454545454545425" cy="0.5144296882422266" r="0.05" fill="#ff0"></circle><circle cx="-0.4545454545454544" cy="1.6699729079282084e-16" r="0.05" fill="#f00"></circle><line x1="-0.4545454545454544" y1="1.6699729079282084e-16" x2="-0.45454545454545464" y2="-0.5144296882422262" stroke="#ff0" stroke-width="0.02"></line><line x1="-0.2225209339563148" y1="-0.9749279121818235" x2="-0.38259785938863183" y2="-0.9383913985514585" stroke="#ff0" stroke-width="0.02"></line><circle cx="-0.45454545454545464" cy="-0.5144296882422262" r="0.05" fill="#ff0"></circle><circle cx="-0.38259785938863183" cy="-0.9383913985514585" r="0.05" fill="#ff0"></circle><circle cx="-0.2225209339563148" cy="-0.9749279121818235" r="0.05" fill="#f00"></circle><line x1="-0.2225209339563148" y1="-0.9749279121818235" x2="-0.062444008523997736" y2="-1.0114644258121885" stroke="#ff0" stroke-width="0.02"></line><line x1="0.40953130359200846" y1="-0.19721988141707203" x2="0.18632862694439134" y2="-0.6607050152480651" stroke="#ff0" stroke-width="0.02"></line><circle cx="-0.062444008523997736" cy="-1.0114644258121885" r="0.05" fill="#ff0"></circle><circle cx="0.18632862694439134" cy="-0.6607050152480651" r="0.05" fill="#ff0"></circle><circle cx="0.40953130359200846" cy="-0.19721988141707203" r="0.05" fill="#f00"></circle><line x1="0.40953130359200846" y1="-0.19721988141707203" x2="0.6327339802396257" y2="0.266265252413921" stroke="#ff0" stroke-width="0.02"></line><line x1="0.6234898018587339" y1="0.7818314824680296" x2="0.7518615289945261" y2="0.679458446192362" stroke="#ff0" stroke-width="0.02"></line><circle cx="0.6327339802396257" cy="0.266265252413921" r="0.05" fill="#ff0"></circle><circle cx="0.7518615289945261" cy="0.679458446192362" r="0.05" fill="#ff0"></circle><circle cx="0.6234898018587339" cy="0.7818314824680296" r="0.05" fill="#f00"></circle><line x1="0.6234898018587339" y1="0.7818314824680296" x2="0.49511807472294167" y2="0.8842045187436972" stroke="#ff0" stroke-width="0.02"></line><line x1="-0.2834044553903331" y1="0.3553779465763772" x2="0.11879287039365335" y2="0.6761196109687728" stroke="#ff0" stroke-width="0.02"></line><circle cx="0.49511807472294167" cy="0.8842045187436972" r="0.05" fill="#ff0"></circle><circle cx="0.11879287039365335" cy="0.6761196109687728" r="0.05" fill="#ff0"></circle><circle cx="-0.2834044553903331" cy="0.3553779465763772" r="0.05" fill="#f00"></circle><line x1="-0.2834044553903331" y1="0.3553779465763772" x2="-0.6856017811743202" y2="0.034636282183982424" stroke="#ff0" stroke-width="0.02"></line><line x1="-0.9009688679024194" y1="-0.43388373911755757" x2="-0.9722098018065283" y2="-0.2859504155538796" stroke="#ff0" stroke-width="0.02"></line><circle cx="-0.6856017811743202" cy="0.034636282183982424" r="0.05" fill="#ff0"></circle><circle cx="-0.9722098018065283" cy="-0.2859504155538796" r="0.05" fill="#ff0"></circle><circle cx="-0.9009688679024194" cy="-0.43388373911755757" r="0.05" fill="#f00"></circle><line x1="-0.9009688679024194" y1="-0.43388373911755757" x2="-0.8297279339983102" y2="-0.5818170626812355" stroke="#ff0" stroke-width="0.02"></line><line x1="0.10114587907105167" y1="-0.44314905099173796" x2="-0.40038598285128857" y2="-0.5576204256742535" stroke="#ff0" stroke-width="0.02"></line><circle cx="-0.8297279339983102" cy="-0.5818170626812355" r="0.05" fill="#ff0"></circle><circle cx="-0.40038598285128857" cy="-0.5576204256742535" r="0.05" fill="#ff0"></circle><circle cx="0.10114587907105167" cy="-0.44314905099173796" r="0.05" fill="#f00"></circle><line x1="0.10114587907105167" y1="-0.44314905099173796" x2="0.6026777409933922" y2="-0.32867767630922334" stroke="#ff0" stroke-width="0.02"></line><line x1="1" y1="-7.347880794884118e-16" x2="0.9999999999999996" y2="-0.16419360183675152" stroke="#ff0" stroke-width="0.02"></line><circle cx="0.6026777409933922" cy="-0.32867767630922334" r="0.05" fill="#ff0"></circle><circle cx="0.9999999999999996" cy="-0.16419360183675152" r="0.05" fill="#ff0"></circle><circle cx="1" cy="-7.347880794884118e-16" r="0.05" fill="#f00"></circle><path d="M 1 0 C 1 0.16419360183675077 0.6026777409933922 0.328677676309222 0.10114587907105199 0.44314905099173785 C -0.4003859828512882 0.5576204256742537 -0.82972793399831 0.5818170626812362 -0.9009688679024191 0.4338837391175583 C -0.9722098018065282 0.28595041555388034 -0.6856017811743196 -0.034636282183981175 -0.28340445539033343 -0.355377946576377 C 0.11879287039365283 -0.6761196109687729 0.49511807472294106 -0.8842045187436973 0.6234898018587334 -0.7818314824680298 C 0.7518615289945257 -0.6794584461923624 0.6327339802396255 -0.26626525241392146 0.4095313035920086 0.19721988141707172 C 0.18632862694439184 0.660705015248065 -0.062444008523997 1.0114644258121885 -0.2225209339563141 0.9749279121818237 C -0.3825978593886312 0.9383913985514587 -0.45454545454545425 0.5144296882422266 -0.4545454545454544 1.6699729079282084e-16 C -0.45454545454545464 -0.5144296882422262 -0.38259785938863183 -0.9383913985514585 -0.2225209339563148 -0.9749279121818235 C -0.062444008523997736 -1.0114644258121885 0.18632862694439134 -0.6607050152480651 0.40953130359200846 -0.19721988141707203 C 0.6327339802396257 0.266265252413921 0.7518615289945261 0.679458446192362 0.6234898018587339 0.7818314824680296 C 0.49511807472294167 0.8842045187436972 0.11879287039365335 0.6761196109687728 -0.2834044553903331 0.3553779465763772 C -0.6856017811743202 0.034636282183982424 -0.9722098018065283 -0.2859504155538796 -0.9009688679024194 -0.43388373911755757 C -0.8297279339983102 -0.5818170626812355 -0.40038598285128857 -0.5576204256742535 0.10114587907105167 -0.44314905099173796 C 0.6026777409933922 -0.32867767630922334 0.9999999999999996 -0.16419360183675152 1 -7.347880794884118e-16 Z " fill="none" stroke="#f00" stroke-width="0.02"></path></svg>