<svg xmlns="http://www.w3.org/2000/svg" viewBox="-1.5 -1.5 3 3"><line x1="1" y1="0" x2="1" y2="0.14665983879190223" stroke="#ff0" stroke-width="0.02"></line><line x1="0.20606030973504838" y1="0.49747359442915434" x2="0.6454479628235499" y2="0.3154732693806125" stroke="#ff0" stroke-width="0.02"></line><circle cx="1" cy="0.14665983879190223" r="0.05" fill="#ff0"></circle><circle cx="0.6454479628235499" cy="0.3154732693806125" r="0.05" fill="#ff0"></circle><circle cx="0.20606030973504838" cy="0.49747359442915434" r="0.05" fill="#f00"></circle><line x1="0.20606030973504838" y1="0.49747359442915434" x2="-0.23332734335345318" y2="0.6794739194776963" stroke="#ff0" stroke-width="0.02"></line><line x1="-0.7071067811865474" y1="0.7071067811865476" x2="-0.6034026146490674" y2="0.8108109477240274" stroke="#ff0" stroke-width="0.02"></line><circle cx="-0.23332734335345318" cy="0.6794739194776963" r="0.05" fill="#ff0"></circle><circle cx="-0.6034026146490674" cy="0.8108109477240274" r="0.05" fill="#ff0"></circle><circle cx="-0.7071067811865474" cy="0.7071067811865476" r="0.05" fill="#f00"></circle><line x1="-0.7071067811865474" y1="0.7071067811865476" x2="-0.8108109477240274" y2="0.6034026146490676" stroke="#ff0" stroke-width="0.02"></line><line x1="-0.49747359442915445" y1="-0.2060603097350483" x2="-0.6794739194776963" y2="0.23332734335345326" stroke="#ff0" stroke-width="0.02"></line><circle cx="-0.8108109477240274" cy="0.6034026146490676" r="0.05" fill="#ff0"></circle><circle cx="-0.6794739194776963" cy="0.23332734335345326" r="0.05" fill="#ff0"></circle><circle cx="-0.49747359442915445" cy="-0.2060603097350483" r="0.05" fill="#f00"></circle><line x1="-0.49747359442915445" y1="-0.2060603097350483" x2="-0.31547326938061243" y2="-0.6454479628235498" stroke="#ff0" stroke-width="0.02"></line><line x1="-1.83697019872103e-16" y1="-1" x2="-0.1466598387919024" y2="-1" stroke="#ff0" stroke-width="0.02"></line><circle cx="-0.31547326938061243" cy="-0.6454479628235498" r="0.05" fill="#ff0"></circle><circle cx="-0.1466598387919024" cy="-1" r="0.05" fill="#ff0"></circle><circle cx="-1.83697019872103e-16" cy="-1" r="0.05" fill="#f00"></circle><line x1="-1.83697019872103e-16" y1="-1" x2="0.14665983879190203" y2="-1" stroke="#ff0" stroke-width="0.02"></line><line x1="0.4974735944291543" y1="-0.20606030973504866" x2="0.31547326938061215" y2="-0.6454479628235501" stroke="#ff0" stroke-width="0.02"></line><circle cx="0.14665983879190203" cy="-1" r="0.05" fill="#ff0"></circle><circle cx="0.31547326938061215" cy="-0.6454479628235501" r="0.05" fill="#ff0"></circle><circle cx="0.4974735944291543" cy="-0.20606030973504866" r="0.05" fill="#f00"></circle><line x1="0.4974735944291543" y1="-0.20606030973504866" x2="0.6794739194776965" y2="0.23332734335345282" stroke="#ff0" stroke-width="0.02"></line><line x1="0.7071067811865482" y1="0.7071067811865467" x2="0.8108109477240282" y2="0.6034026146490666" stroke="#ff0" stroke-width="0.02"></line><circle cx="0.6794739194776965" cy="0.23332734335345282" r="0.05" fill="#ff0"></circle><circle cx="0.8108109477240282" cy="0.6034026146490666" r="0.05" fill="#ff0"></circle><circle cx="0.7071067811865482" cy="0.7071067811865467" r="0.05" fill="#f00"></circle><line x1="0.7071067811865482" y1="0.7071067811865467" x2="0.6034026146490685" y2="0.8108109477240267" stroke="#ff0" stroke-width="0.02"></line><line x1="-0.2060603097350475" y1="0.49747359442915473" x2="0.23332734335345434" y2="0.679473919477696" stroke="#ff0" stroke-width="0.02"></line><circle cx="0.6034026146490685" cy="0.8108109477240267" r="0.05" fill="#ff0"></circle><circle cx="0.23332734335345434" cy="0.679473919477696" r="0.05" fill="#ff0"></circle><circle cx="-0.2060603097350475" cy="0.49747359442915473" r="0.05" fill="#f00"></circle><line x1="-0.2060603097350475" y1="0.49747359442915473" x2="-0.6454479628235493" y2="0.3154732693806136" stroke="#ff0" stroke-width="0.02"></line><line x1="-1" y1="2.1437508791444563e-15" x2="-0.9999999999999997" y2="0.14665983879190436" stroke="#ff0" stroke-width="0.02"></line><circle cx="-0.6454479628235493" cy="0.3154732693806136" r="0.05" fill="#ff0"></circle><circle cx="-0.9999999999999997" cy="0.14665983879190436" r="0.05" fill="#ff0"></circle><circle cx="-1" cy="2.1437508791444563e-15" r="0.05" fill="#f00"></circle><line x1="-1" y1="2.1437508791444563e-15" x2="-1.0000000000000002" y2="-0.14665983879190006" stroke="#ff0" stroke-width="0.02"></line><line x1="-0.20606030973504966" y1="-0.49747359442915384" x2="-0.6454479628235507" y2="-0.3154732693806108" stroke="#ff0" stroke-width="0.02"></line><circle cx="-1.0000000000000002" cy="-0.14665983879190006" r="0.05" fill="#ff0"></circle><circle cx="-0.6454479628235507" cy="-0.3154732693806108" r="0.05" fill="#ff0"></circle><circle cx="-0.20606030973504966" cy="-0.49747359442915384" r="0.05" fill="#f00"></circle><line x1="-0.20606030973504966" y1="-0.49747359442915384" x2="0.2333273433534514" y2="-0.6794739194776969" stroke="#ff0" stroke-width="0.02"></line><line x1="0.7071067811865454" y1="-0.7071067811865497" x2="0.6034026146490651" y2="-0.8108109477240293" stroke="#ff0" stroke-width="0.02"></line><circle cx="0.2333273433534514" cy="-0.6794739194776969" r="0.05" fill="#ff0"></circle><circle cx="0.6034026146490651" cy="-0.8108109477240293" r="0.05" fill="#ff0"></circle><circle cx="0.7071067811865454" cy="-0.7071067811865497" r="0.05" fill="#f00"></circle><line x1="0.7071067811865454" y1="-0.7071067811865497" x2="0.8108109477240256" y2="-0.6034026146490702" stroke="#ff0" stroke-width="0.02"></line><line x1="0.4974735944291552" y1="0.20606030973504655" x2="0.6794739194776955" y2="-0.23332734335345567" stroke="#ff0" stroke-width="0.02"></line><circle cx="0.8108109477240256" cy="-0.6034026146490702" r="0.05" fill="#ff0"></circle><circle cx="0.6794739194776955" cy="-0.23332734335345567" r="0.05" fill="#ff0"></circle><circle cx="0.4974735944291552" cy="0.20606030973504655" r="0.05" fill="#f00"></circle><line x1="0.4974735944291552" y1="0.20606030973504655" x2="0.3154732693806149" y2="0.6454479628235488" stroke="#ff0" stroke-width="0.02"></line><line x1="4.10380473841681e-15" y1="1" x2="0.14665983879190633" y2="0.9999999999999994" stroke="#ff0" stroke-width="0.02"></line><circle cx="0.3154732693806149" cy="0.6454479628235488" r="0.05" fill="#ff0"></circle><circle cx="0.14665983879190633" cy="0.9999999999999994" r="0.05" fill="#ff0"></circle><circle cx="4.10380473841681e-15" cy="1" r="0.05" fill="#f00"></circle><line x1="4.10380473841681e-15" y1="1" x2="-0.14665983879189812" y2="1.0000000000000007" stroke="#ff0" stroke-width="0.02"></line><line x1="-0.4974735944291534" y1="0.20606030973505063" x2="-0.31547326938060954" y2="0.6454479628235514" stroke="#ff0" stroke-width="0.02"></line><circle cx="-0.14665983879189812" cy="1.0000000000000007" r="0.05" fill="#ff0"></circle><circle cx="-0.31547326938060954" cy="0.6454479628235514" r="0.05" fill="#ff0"></circle><circle cx="-0.4974735944291534" cy="0.20606030973505063" r="0.05" fill="#f00"></circle><line x1="-0.4974735944291534" y1="0.20606030973505063" x2="-0.6794739194776974" y2="-0.23332734335345004" stroke="#ff0" stroke-width="0.02"></line><line x1="-0.7071067811865499" y1="-0.7071067811865452" x2="-0.8108109477240295" y2="-0.6034026146490649" stroke="#ff0" stroke-width="0.02"></line><circle cx="-0.6794739194776974" cy="-0.23332734335345004" r="0.05" fill="#ff0"></circle><circle cx="-0.8108109477240295" cy="-0.6034026146490649" r="0.05" fill="#ff0"></circle><circle cx="-0.7071067811865499" cy="-0.7071067811865452" r="0.05" fill="#f00"></circle><line x1="-0.7071067811865499" y1="-0.7071067811865452" x2="-0.6034026146490704" y2="-0.8108109477240256" stroke="#ff0" stroke-width="0.02"></line><line x1="0.20606030973504647" y1="-0.4974735944291552" x2="-0.2333273433534561" y2="-0.6794739194776946" stroke="#ff0" stroke-width="0.02"></line><circle cx="-0.6034026146490704" cy="-0.8108109477240256" r="0.05" fill="#ff0"></circle><circle cx="-0.2333273433534561" cy="-0.6794739194776946" r="0.05" fill="#ff0"></circle><circle cx="0.20606030973504647" cy="-0.4974735944291552" r="0.05" fill="#f00"></circle><line x1="0.20606030973504647" y1="-0.4974735944291552" x2="0.6454479628235484" y2="-0.31547326938061415" stroke="#ff0" stroke-width="0.02"></line><line x1="1" y1="-4.287501758288913e-15" x2="0.9999999999999997" y2="-0.1466598387919065" stroke="#ff0" stroke-width="0.02"></line><circle cx="0.6454479628235484" cy="-0.31547326938061415" r="0.05" fill="#ff0"></circle><circle cx="0.9999999999999997" cy="-0.1466598387919065" r="0.05" fill="#ff0"></circle><circle cx="1" cy="-4.287501758288913e-15" r="0.05" fill="#f00"></circle><path d="M 1 0 C 1 0.14665983879190223 0.6454479628235499 0.3154732693806125 0.20606030973504838 0.49747359442915434 C -0.23332734335345318 0.6794739194776963 -0.6034026146490674 0.8108109477240274 -0.7071067811865474 0.7071067811865476 C -0.8108109477240274 0.6034026146490676 -0.6794739194776963 0.23332734335345326 -0.49747359442915445 -0.2060603097350483 C -0.31547326938061243 -0.6454479628235498 -0.1466598387919024 -1 -1.83697019872103e-16 -1 C 0.14665983879190203 -1 0.31547326938061215 -0.6454479628235501 0.4974735944291543 -0.20606030973504866 C 0.6794739194776965 0.23332734335345282 0.8108109477240282 0.6034026146490666 0.7071067811865482 0.7071067811865467 C 0.6034026146490685 0.8108109477240267 0.23332734335345434 0.679473919477696 -0.2060603097350475 0.49747359442915473 C -0.6454479628235493 0.3154732693806136 -0.9999999999999997 0.14665983879190436 -1 2.1437508791444563e-15 C -1.0000000000000002 -0.14665983879190006 -0.6454479628235507 -0.3154732693806108 -0.20606030973504966 -0.49747359442915384 C 0.2333273433534514 -0.6794739194776969 0.6034026146490651 -0.8108109477240293 0.7071067811865454 -0.7071067811865497 C 0.8108109477240256 -0.6034026146490702 0.6794739194776955 -0.23332734335345567 0.4974735944291552 0.20606030973504655 C 0.3154732693806149 0.6454479628235488 0.14665983879190633 0.9999999999999994 4.10380473841681e-15 1 C -0.14665983879189812 1.0000000000000007 -0.31547326938060954 0.6454479628235514 -0.4974735944291534 0.20606030973505063 C -0.6794739194776974 -0.23332734335345004 -0.8108109477240295 -0.6034026146490649 -0.7071067811865499 -0.7071067811865452 C -0.6034026146490704 -0.8108109477240256 -0.2333273433534561 -0.6794739194776946 0.20606030973504647 -0.4974735944291552 C 0.6454479628235484 -0.31547326938061415 0.9999999999999997 -0.1466598387919065 1 -4.287501758288913e-15 Z " fill="none" stroke="#f00" stroke-width="0.02"></path></svg>